{"title":"Maury.Show.2018.01.01-TrumpSux","magnet":"magnet:?xt=urn:btih:6c23e0824c868c661a9887c60efef7da7fef2483&dn=Maury.Show.2018.01.01-TrumpSux&tr=udp%3A%2F%2Ftracker.leechers-paradise.org%3A6969&tr=udp%3A%2F%2Fzer0day.ch%3A1337&tr=udp%3A%2F%2Fopen.demonii.com%3A1337&tr=udp%3A%2F%2Ftracker.coppersurfer.tk%3A6969&tr=udp%3A%2F%2Fexodus.desync.com%3A6969","uploader":"Dbaum2","categoryP":"video","categoryS":"tv_shows","size":"425559953","seeders":"10","leechers":"2","description":"General\r\nComplete name Maury.Show.2018.01.01.Who.Is.Number.1.Maury&apos;s.New.Year.Countdown.HDTV.x264-TrumpSux.mp4\r\nFormat : MPEG-4\r\nFormat profile : Base Media / Version 2\r\nCodec ID : mp42\r\nFile size : 406 MiB\r\nDuration : 39mn 18s\r\nOverall bit rate mode : Variable\r\nOverall bit rate : 1 443 Kbps\r\nEncoded date : UTC 2018-01-01 23:42:59\r\nTagged date : UTC 2018-01-01 23:42:59\r\n\r\nVideo\r\nID : 2\r\nFormat : AVC\r\nFormat/Info : Advanced Video Codec\r\nFormat profile : <a href=\"/cdn-cgi/l/email-protection\" class=\"__cf_email__\" data-cfemail=\"9ed6f7f9f6ded2adb0af\">[email&#xA0;protected]</a>\r\nFormat settings, CABAC : Yes\r\nFormat settings, ReFrames : 11 frames\r\nCodec ID : avc1\r\nCodec ID/Info : Advanced Video Coding\r\nDuration : 39mn 18s\r\nBit rate mode : Variable\r\nBit rate : 1 346 Kbps\r\nMaximum bit rate : 9 800 Kbps\r\nWidth : 852 pixels\r\nHeight : 480 pixels\r\nDisplay aspect ratio : 16:9\r\nFrame rate mode : Constant\r\nFrame rate : 29.970 fps\r\nStandard : Component\r\nColor space : YUV\r\nChroma subsampling : 4:2:0\r\nBit depth : 8 bits\r\nScan type : Progressive\r\nBits/(Pixel*Frame) : 0.110\r\nStream size : 379 MiB (93%)\r\nEncoded date : UTC 2018-01-01 23:42:59\r\nTagged date : UTC 2018-01-01 23:42:59\r\nColor range : Limited\r\nColor primaries : BT.709\r\nTransfer characteristics : BT.709\r\nMatrix coefficients : BT.709\r\n\r\nAudio\r\nID : 1\r\nFormat : AAC\r\nFormat/Info : Advanced Audio Codec\r\nFormat profile : LC\r\nCodec ID : 40\r\nDuration : 39mn 18s\r\nBit rate mode : Variable\r\nBit rate : 93.4 Kbps\r\nMaximum bit rate : 576 Kbps\r\nChannel(s) : 2 channels\r\nChannel positions : Front: L R\r\nSampling rate : 48.0 KHz\r\nCompression mode : Lossy\r\nStream size : 26.3 MiB (6%)\r\nEncoded date : UTC 2018-01-01 23:42:59\r\nTagged date : UTC 2018-01-01 23:42:59\r\n\r\n <a href=\"\nhttp://preview.ibb.co/eJ5Kbb/screens.jpg\" rel=\"nofollow\" target=\"_NEW\">\nhttp://preview.ibb.co/eJ5Kbb/screens.jpg</a>","last_updated":"2018-01-02T12:05:58.547Z","parsed":{"xt":"urn:btih:6c23e0824c868c661a9887c60efef7da7fef2483","dn":"Maury.Show.2018.01.01-TrumpSux","tr":["udp://exodus.desync.com:6969","udp://open.demonii.com:1337","udp://tracker.coppersurfer.tk:6969","udp://tracker.leechers-paradise.org:6969","udp://zer0day.ch:1337"],"infoHash":"6c23e0824c868c661a9887c60efef7da7fef2483","infoHashBuffer":{"type":"Buffer","data":[108,35,224,130,76,134,140,102,26,152,135,198,14,254,247,218,127,239,36,131]},"name":"Maury.Show.2018.01.01-TrumpSux","announce":["udp://exodus.desync.com:6969","udp://open.demonii.com:1337","udp://tracker.coppersurfer.tk:6969","udp://tracker.leechers-paradise.org:6969","udp://zer0day.ch:1337"],"urlList":[]}}